<?xml version="1.0"?>
<svg xmlns="http://www.w3.org/2000/svg" xmlns:xlink="http://www.w3.org/1999/xlink" xmlns:svgjs="http://svgjs.com/svgjs" version="1.1" width="512" height="512" x="0" y="0" viewBox="0 0 850 850" style="enable-background:new 0 0 512 512" xml:space="preserve" class=""><g><g xmlns="http://www.w3.org/2000/svg" id="Layer_x0020_1"><circle cx="425" cy="425" fill="#5a0083" r="425" data-original="#571845" class=""/><g id="_393538544"><g><g><path d="m389 590c-1 0-3 0-4-1l-38-32c-3-2-4-7-1-10 2-3 7-4 10-1l34 28 30-20c4-2 8-1 10 2 3 3 2 8-2 10l-35 23c-1 1-2 1-4 1z" fill="#ffffff" data-original="#ffffff" class=""/></g><g><path d="m626 654h-403c-5 0-8-3-8-7 0-86 111-100 132-102l23-28c1-2 3-3 5-3s3 0 5 2l44 35 44-35c2-2 4-2 6-2s4 1 5 3l22 28c22 2 133 16 132 102 0 4-3 7-7 7zm-396-14h388c-6-75-120-81-121-81-2 0-4-1-6-3l-19-25-43 35c-3 2-7 2-9 0l-43-35-20 25c-1 2-3 3-5 3s-115 6-122 81z" fill="#ffffff" data-original="#ffffff" class=""/></g><g><path d="m422 517c-26 0-49-8-65-23-12-13-19-28-19-45v-78c0-12 3-20 10-24 8-6 19-6 37 0 4 1 19-1 70-17 4-1 6-2 8-3 14-4 24 0 30 4 10 8 17 23 17 40v78c0 17-7 33-19 45-16 15-41 24-67 24-1-1-1-1-2-1zm-59-160c-3 0-5 1-6 2-3 2-4 7-4 12v78c0 13 5 25 15 34 12 13 34 20 56 20 23 0 44-7 57-20 9-9 14-21 14-35v-77c0-12-4-23-11-28-4-4-10-4-17-2-2 0-4 1-7 2-40 13-69 21-80 17-7-2-13-3-17-3z" fill="#ffffff" data-original="#ffffff" class=""/></g><g><path d="m319 391c-3 0-6-2-7-6 0-1-6-28-1-56 8-43 40-75 86-85 4-1 8 2 9 5 1 4-2 8-6 9-40 9-68 36-74 73-5 25 1 50 1 50 1 4-2 8-6 9-1 1-1 1-2 1z" fill="#ffffff" data-original="#ffffff" class=""/></g><g><path d="m346 448h-26c-13 0-23-15-23-36s10-36 23-36h26c4 0 7 3 7 7v58c0 4-3 7-7 7zm-26-58c-2 0-8 8-8 22 0 13 5 22 8 22h18v-44z" fill="#ffffff" data-original="#ffffff" class=""/></g><g><path d="m375 528c-4 0-7-3-7-7v-23c0-4 3-8 7-8 5 0 8 4 8 8v23c0 4-3 7-8 7z" fill="#ffffff" data-original="#ffffff" class=""/></g><g><path d="m459 590c-1 0-3 0-4-1l-35-23c-4-2-5-7-2-10 2-3 6-4 10-2l30 20 35-28c2-2 7-2 10 1 2 3 2 7-1 10l-39 32c-1 1-3 1-4 1z" fill="#ffffff" data-original="#ffffff" class=""/></g><g><path d="m529 391h-1c-4-1-7-5-6-9 0-1 6-25 1-50-2-11-5-21-10-30-3-3-1-8 2-10s8-1 10 3c6 9 10 21 13 34 5 29-1 55-1 57-2 2-4 5-8 5z" fill="#ffffff" data-original="#ffffff" class=""/></g><g><path d="m529 448h-26c-5 0-8-3-8-7v-58c0-4 3-7 8-7h26c13 0 22 15 22 36s-9 36-22 36zm-19-14h19c2 0 8-8 8-22s-6-22-8-22h-19z" fill="#ffffff" data-original="#ffffff" class=""/></g><g><path d="m473 528c-5 0-8-3-8-7v-23c0-4 3-8 8-8 4 0 7 4 7 8v23c0 4-3 7-7 7z" fill="#ffffff" data-original="#ffffff" class=""/></g><g><path d="m403 396h-29c-4 0-7-3-7-7 0-5 3-8 7-8h29c4 0 7 3 7 8 0 4-3 7-7 7z" fill="#ffffff" data-original="#ffffff" class=""/></g><g><path d="m466 396h-28c-4 0-8-3-8-7 0-5 4-8 8-8h28c4 0 8 3 8 8 0 4-4 7-8 7z" fill="#ffffff" data-original="#ffffff" class=""/></g><g><path d="m436 450h-24c-4 0-7-4-7-8s3-7 7-7h24c4 0 8 3 8 7s-4 8-8 8z" fill="#ffffff" data-original="#ffffff" class=""/></g><g><path d="m228 557c-2 0-4-1-5-2l-43-43c-14-15-14-38 0-53 13-13 33-14 48-3 7-5 14-7 22-7 10 0 19 3 26 10 14 15 14 38 0 53l-43 43c-1 1-3 2-5 2zm-23-94c-5 0-10 2-15 7-9 9-9 23 0 32l38 38 38-38c9-9 9-23 0-32-4-4-10-7-16-7s-12 3-17 7c-3 3-7 3-10 0-5-4-11-7-18-7z" fill="#ffffff" data-original="#ffffff" class=""/></g><g><path d="m622 557c-2 0-4-1-5-2l-44-43c-14-15-14-38 0-53 14-13 33-14 49-3 6-5 14-7 22-7 10 0 19 3 26 10 15 15 15 38 0 53l-43 43c-2 1-3 2-5 2zm-22-94c-6 0-12 2-16 7-9 9-9 23 0 32l38 38 38-38c8-9 8-23 0-32-5-4-10-7-16-7-6 0-12 3-16 7-3 3-8 3-10 1-6-5-13-8-18-8z" fill="#ffffff" data-original="#ffffff" class=""/></g><g><g><path d="m399 334c-1 0-2 0-2-1-3-1-5-4-5-7v-123c0-4 3-7 7-7h123c4 0 7 3 7 7v95c0 4-3 8-7 8h-99l-18 25c-2 1-4 3-6 3zm7-124v94l7-10c2-2 4-3 6-3h96v-81z" fill="#ffffff" data-original="#ffffff" class=""/></g><g><g><path d="m493 238h-65c-4 0-8-4-8-8s4-7 8-7h65c4 0 7 3 7 7s-3 8-7 8z" fill="#ffffff" data-original="#ffffff" class=""/></g><g><path d="m493 258h-65c-4 0-8-4-8-8s4-7 8-7h65c4 0 7 3 7 7s-3 8-7 8z" fill="#ffffff" data-original="#ffffff" class=""/></g><g><path d="m493 277h-65c-4 0-8-3-8-7s4-8 8-8h65c4 0 7 4 7 8s-3 7-7 7z" fill="#ffffff" data-original="#ffffff" class=""/></g></g></g></g></g></g></g></svg>
