<?xml version="1.0"?>
<svg xmlns="http://www.w3.org/2000/svg" xmlns:xlink="http://www.w3.org/1999/xlink" xmlns:svgjs="http://svgjs.com/svgjs" version="1.1" width="512" height="512" x="0" y="0" viewBox="0 0 509.103 509.103" style="enable-background:new 0 0 512 512" xml:space="preserve" class=""><circle r="254.5515" cx="254.5515" cy="254.5515" fill="#5a0083" shape="circle"/><g transform="matrix(0.7,0,0,0.7,76.36529617309571,76.36529617309571)"><g xmlns="http://www.w3.org/2000/svg"><path d="m269.551 75.085c25.408 3.65 45 25.563 45 51.966s-19.592 48.315-45 51.966v60.534h90v22.5c0 12.406 10.094 22.5 22.5 22.5s22.5-10.094 22.5-22.5v-22.5h104.551c-7.428-128.898-110.539-232.116-239.551-239.551z" fill="#ffffff" data-original="#000000" class=""/><path d="m75.085 239.551c3.65-25.408 25.563-45 51.966-45s48.315 19.592 51.966 45h60.534v-90h22.5c12.406 0 22.5-10.094 22.5-22.5s-10.094-22.5-22.5-22.5h-22.5v-104.551c-128.903 7.428-232.116 110.543-239.551 239.551z" fill="#ffffff" data-original="#000000" class=""/><path d="m239.551 434.017c-25.409-3.65-45-25.564-45-51.966s19.591-48.315 45-51.966v-60.534h-90v-22.5c0-12.406-10.093-22.5-22.5-22.5s-22.5 10.094-22.5 22.5v22.5h-104.551c7.428 128.899 110.539 232.116 239.551 239.551z" fill="#ffffff" data-original="#000000" class=""/><path d="m434.017 269.551c-3.65 25.408-25.564 45-51.966 45s-48.315-19.592-51.966-45h-60.534v90h-22.5c-12.407 0-22.5 10.094-22.5 22.5s10.093 22.5 22.5 22.5h22.5v104.551c128.898-7.428 232.116-110.54 239.551-239.551z" fill="#ffffff" data-original="#000000" class=""/></g></g></svg>
